<svg xmlns="http://www.w3.org/2000/svg" viewBox="0 0 16 16" shape-rendering="crispEdges"><rect x="3" y="2" width="10" height="1" fill="#2a1d0e"/><rect x="2" y="3" width="1" height="1" fill="#2a1d0e"/><rect x="3" y="3" width="10" height="1" fill="#7a4a24"/><rect x="13" y="3" width="1" height="1" fill="#2a1d0e"/><rect x="1" y="4" width="1" height="1" fill="#2a1d0e"/><rect x="2" y="4" width="2" height="1" fill="#7a4a24"/><rect x="4" y="4" width="8" height="1" fill="#4e2e15"/><rect x="12" y="4" width="2" height="1" fill="#7a4a24"/><rect x="14" y="4" width="1" height="1" fill="#2a1d0e"/><rect x="1" y="5" width="1" height="1" fill="#2a1d0e"/><rect x="2" y="5" width="12" height="1" fill="#d9a441"/><rect x="14" y="5" width="1" height="1" fill="#2a1d0e"/><rect x="1" y="6" width="1" height="1" fill="#2a1d0e"/><rect x="2" y="6" width="4" height="1" fill="#7a4a24"/><rect x="6" y="6" width="1" height="1" fill="#2a1d0e"/><rect x="7" y="6" width="2" height="1" fill="#f3d27a"/><rect x="9" y="6" width="1" height="1" fill="#2a1d0e"/><rect x="10" y="6" width="4" height="1" fill="#7a4a24"/><rect x="14" y="6" width="1" height="1" fill="#2a1d0e"/><rect x="1" y="7" width="6" height="1" fill="#2a1d0e"/><rect x="7" y="7" width="2" height="1" fill="#d9a441"/><rect x="9" y="7" width="6" height="1" fill="#2a1d0e"/><rect x="1" y="8" width="1" height="1" fill="#2a1d0e"/><rect x="2" y="8" width="4" height="1" fill="#7a4a24"/><rect x="6" y="8" width="1" height="1" fill="#2a1d0e"/><rect x="7" y="8" width="2" height="1" fill="#d9a441"/><rect x="9" y="8" width="1" height="1" fill="#2a1d0e"/><rect x="10" y="8" width="4" height="1" fill="#7a4a24"/><rect x="14" y="8" width="1" height="1" fill="#2a1d0e"/><rect x="1" y="9" width="1" height="1" fill="#2a1d0e"/><rect x="2" y="9" width="1" height="1" fill="#7a4a24"/><rect x="3" y="9" width="3" height="1" fill="#4e2e15"/><rect x="6" y="9" width="4" height="1" fill="#2a1d0e"/><rect x="10" y="9" width="3" height="1" fill="#4e2e15"/><rect x="13" y="9" width="1" height="1" fill="#7a4a24"/><rect x="14" y="9" width="1" height="1" fill="#2a1d0e"/><rect x="1" y="10" width="1" height="1" fill="#2a1d0e"/><rect x="2" y="10" width="1" height="1" fill="#7a4a24"/><rect x="3" y="10" width="10" height="1" fill="#4e2e15"/><rect x="13" y="10" width="1" height="1" fill="#7a4a24"/><rect x="14" y="10" width="1" height="1" fill="#2a1d0e"/><rect x="1" y="11" width="1" height="1" fill="#2a1d0e"/><rect x="2" y="11" width="1" height="1" fill="#d9a441"/><rect x="3" y="11" width="1" height="1" fill="#7a4a24"/><rect x="4" y="11" width="8" height="1" fill="#4e2e15"/><rect x="12" y="11" width="1" height="1" fill="#7a4a24"/><rect x="13" y="11" width="1" height="1" fill="#d9a441"/><rect x="14" y="11" width="1" height="1" fill="#2a1d0e"/><rect x="1" y="12" width="1" height="1" fill="#2a1d0e"/><rect x="2" y="12" width="1" height="1" fill="#d9a441"/><rect x="3" y="12" width="10" height="1" fill="#7a4a24"/><rect x="13" y="12" width="1" height="1" fill="#d9a441"/><rect x="14" y="12" width="1" height="1" fill="#2a1d0e"/><rect x="1" y="13" width="14" height="1" fill="#2a1d0e"/><rect x="2" y="14" width="1" height="1" fill="#0d0b08"/><rect x="13" y="14" width="1" height="1" fill="#0d0b08"/></svg>
