<svg xmlns="http://www.w3.org/2000/svg" viewBox="0 0 16 16" shape-rendering="crispEdges"><rect x="3" y="1" width="4" height="1" fill="#2a1d0e"/><rect x="2" y="2" width="1" height="1" fill="#2a1d0e"/><rect x="3" y="2" width="1" height="1" fill="#f3d27a"/><rect x="4" y="2" width="3" height="1" fill="#d9a441"/><rect x="7" y="2" width="1" height="1" fill="#2a1d0e"/><rect x="1" y="3" width="1" height="1" fill="#2a1d0e"/><rect x="2" y="3" width="1" height="1" fill="#f3d27a"/><rect x="3" y="3" width="1" height="1" fill="#2a1d0e"/><rect x="6" y="3" width="1" height="1" fill="#2a1d0e"/><rect x="7" y="3" width="1" height="1" fill="#d9a441"/><rect x="8" y="3" width="1" height="1" fill="#2a1d0e"/><rect x="1" y="4" width="1" height="1" fill="#2a1d0e"/><rect x="2" y="4" width="1" height="1" fill="#d9a441"/><rect x="3" y="4" width="1" height="1" fill="#2a1d0e"/><rect x="6" y="4" width="1" height="1" fill="#2a1d0e"/><rect x="7" y="4" width="1" height="1" fill="#d9a441"/><rect x="8" y="4" width="1" height="1" fill="#2a1d0e"/><rect x="1" y="5" width="1" height="1" fill="#2a1d0e"/><rect x="2" y="5" width="2" height="1" fill="#d9a441"/><rect x="4" y="5" width="2" height="1" fill="#2a1d0e"/><rect x="6" y="5" width="2" height="1" fill="#d9a441"/><rect x="8" y="5" width="1" height="1" fill="#2a1d0e"/><rect x="2" y="6" width="1" height="1" fill="#2a1d0e"/><rect x="3" y="6" width="4" height="1" fill="#d9a441"/><rect x="7" y="6" width="3" height="1" fill="#2a1d0e"/><rect x="3" y="7" width="4" height="1" fill="#2a1d0e"/><rect x="7" y="7" width="3" height="1" fill="#d9a441"/><rect x="10" y="7" width="1" height="1" fill="#2a1d0e"/><rect x="7" y="8" width="1" height="1" fill="#2a1d0e"/><rect x="8" y="8" width="3" height="1" fill="#d9a441"/><rect x="11" y="8" width="1" height="1" fill="#2a1d0e"/><rect x="8" y="9" width="1" height="1" fill="#2a1d0e"/><rect x="9" y="9" width="3" height="1" fill="#d9a441"/><rect x="12" y="9" width="1" height="1" fill="#2a1d0e"/><rect x="9" y="10" width="1" height="1" fill="#2a1d0e"/><rect x="10" y="10" width="3" height="1" fill="#d9a441"/><rect x="13" y="10" width="1" height="1" fill="#2a1d0e"/><rect x="8" y="11" width="1" height="1" fill="#2a1d0e"/><rect x="9" y="11" width="1" height="1" fill="#d9a441"/><rect x="10" y="11" width="1" height="1" fill="#2a1d0e"/><rect x="11" y="11" width="2" height="1" fill="#d9a441"/><rect x="13" y="11" width="1" height="1" fill="#2a1d0e"/><rect x="7" y="12" width="1" height="1" fill="#2a1d0e"/><rect x="8" y="12" width="1" height="1" fill="#d9a441"/><rect x="9" y="12" width="1" height="1" fill="#2a1d0e"/><rect x="11" y="12" width="2" height="1" fill="#2a1d0e"/><rect x="8" y="13" width="1" height="1" fill="#2a1d0e"/></svg>
